<svg xmlns="http://www.w3.org/2000/svg" xmlns:xlink="http://www.w3.org/1999/xlink" width="154" height="204" viewBox="0 0 308 408"><defs><symbol id="diamond" preserveAspectRatio="xMidYMid meet" viewBox="0 0 1088 2048" style="fill:#000"><path d="M493,1252c0-39-34-39-31-11c-3,146-128,219-220,203c-140-28-184-166-182-247c3-253,258-438,487-760c167,291,443,520,459,744	c24,300-357,411-412,63c-2-23-31-37-28,0c7,94-6,136,104,369H388C451,1504,488,1369,493,1252z"/></symbol><g id="corner"><text x="40" y="52" style="font-family:Bitstream Vera Sans;font-size:52px;fill:#000;text-anchor:middle">8</text><use width="55" height="110" x="12" y="42" xlink:href="#diamond"/></g></defs><rect width="300" height="400" x="8" y="8" rx="12" ry="12" style="stroke:none;fill:#000;opacity:.6"/><rect width="300" height="400" x="2" y="2" rx="12" ry="12" style="stroke:#000;fill:#fff;stroke-width:4"/><use width="300" height="200" x="2" y="100" xlink:href="#diamond"/><use x="0" y="0" xlink:href="#corner"/><use transform="translate(304, 404) rotate(180)" xlink:href="#corner"/></svg>