<svg xmlns="http://www.w3.org/2000/svg" xmlns:xlink="http://www.w3.org/1999/xlink" width="154" height="204" viewBox="0 0 308 408"><defs><symbol id="diamond" preserveAspectRatio="xMidYMid meet" viewBox="0 0 1344 2048" style="fill:#000"><path d="M522,1635c62-123,107-250,113-384c8-51-23-51-26-14c-87,331-553,241-536-73c14-253,267-309,399-225c50,31,47,11,19-20 c-196-219-75-500,189-505c286,16,359,320,185,497c-23,19-70,90,0,39c180-124,424,11,418,205c-8,357-443,385-539,84c-8-31-34-47-25,9 c11,101,39,255,115,387H522z"/></symbol><g id="corner"><text x="40" y="52" style="font-family:Bitstream Vera Sans;font-size:52px;fill:#000;text-anchor:middle">8</text><use width="55" height="110" x="12" y="42" xlink:href="#diamond"/></g></defs><rect width="300" height="400" x="8" y="8" rx="12" ry="12" style="stroke:none;fill:#000;opacity:.6"/><rect width="300" height="400" x="2" y="2" rx="12" ry="12" style="stroke:#000;fill:#fff;stroke-width:4"/><use width="300" height="200" x="2" y="100" xlink:href="#diamond"/><use x="0" y="0" xlink:href="#corner"/><use transform="translate(304, 404) rotate(180)" xlink:href="#corner"/></svg>