<svg xmlns="http://www.w3.org/2000/svg" xmlns:xlink="http://www.w3.org/1999/xlink" width="154" height="204" viewBox="0 0 308 408"><defs><symbol id="diamond" preserveAspectRatio="xMidYMid meet" viewBox="0 0 1216 2048" style="fill:red"><path d="M330,404c160-10,243,126,259,234c10,17,16,12,19-1c8-138,132-251,246-236c186,3,299,210,268,355c-46,215-155,344-242,477	c-99,137-232,336-275,431c0,0-135-205-311-447C176,1055,84,879,73,728C63,586,134,431,330,404L330,404z"/></symbol><g id="corner"><text x="40" y="52" style="font-family:Bitstream Vera Sans;font-size:52px;fill:red;text-anchor:middle">A</text><use width="55" height="110" x="12" y="42" xlink:href="#diamond"/></g></defs><rect width="300" height="400" x="8" y="8" rx="12" ry="12" style="stroke:none;fill:#000;opacity:.6"/><rect width="300" height="400" x="2" y="2" rx="12" ry="12" style="stroke:#000;fill:#fff;stroke-width:4"/><use width="300" height="200" x="2" y="100" xlink:href="#diamond"/><use x="0" y="0" xlink:href="#corner"/><use transform="translate(304, 404) rotate(180)" xlink:href="#corner"/></svg>